<?xml version="1.0" encoding="UTF-8"?>
<svg xmlns="http://www.w3.org/2000/svg" xmlns:xlink="http://www.w3.org/1999/xlink" width="100px" height="37px" viewBox="0 0 100 37" version="1.1">
<defs>
<clipPath id="clip1">
  <path d="M 64 2 L 86 2 L 86 23 L 64 23 Z M 64 2 "/>
</clipPath>
<clipPath id="clip2">
  <path d="M 83.933594 5.398438 C 80.925781 1.289062 74.558594 1 69.714844 4.78125 C 64.855469 8.554688 63.359375 14.953125 66.367188 19.066406 C 69.375 23.175781 75.742188 23.464844 80.597656 19.683594 C 85.441406 15.910156 86.941406 9.511719 83.933594 5.398438 Z M 83.933594 5.398438 "/>
</clipPath>
<clipPath id="clip3">
  <path d="M 53.996094 10.195312 L 79.0625 -9.316406 L 96.40625 14.453125 L 71.339844 33.953125 Z M 53.996094 10.195312 "/>
</clipPath>
<clipPath id="clip4">
  <path d="M 83.933594 5.398438 C 80.925781 1.289062 74.558594 1 69.714844 4.78125 C 64.855469 8.554688 63.359375 14.953125 66.367188 19.066406 C 69.375 23.175781 75.742188 23.464844 80.597656 19.683594 C 85.441406 15.910156 86.941406 9.511719 83.933594 5.398438 Z M 83.933594 5.398438 "/>
</clipPath>
<clipPath id="clip5">
  <path d="M 63.566406 20.667969 L 69.621094 -1.144531 L 87.019531 4.007812 L 80.964844 25.820312 Z M 63.566406 20.667969 "/>
</clipPath>
<clipPath id="clip6">
  <path d="M 64 2 L 86 2 L 86 23 L 64 23 Z M 64 2 "/>
</clipPath>
<clipPath id="clip7">
  <path d="M 83.933594 5.398438 C 80.925781 1.289062 74.558594 1 69.714844 4.78125 C 64.855469 8.554688 63.359375 14.953125 66.367188 19.066406 C 69.375 23.175781 75.742188 23.464844 80.597656 19.683594 C 85.441406 15.910156 86.941406 9.511719 83.933594 5.398438 Z M 83.933594 5.398438 "/>
</clipPath>
<clipPath id="clip8">
  <path d="M 53.996094 10.195312 L 79.0625 -9.316406 L 96.40625 14.453125 L 71.339844 33.953125 Z M 53.996094 10.195312 "/>
</clipPath>
<clipPath id="clip9">
  <path d="M 83.933594 5.398438 C 80.925781 1.289062 74.558594 1 69.714844 4.78125 C 64.855469 8.554688 63.359375 14.953125 66.367188 19.066406 C 69.375 23.175781 75.742188 23.464844 80.597656 19.683594 C 85.441406 15.910156 86.941406 9.511719 83.933594 5.398438 Z M 83.933594 5.398438 "/>
</clipPath>
<clipPath id="clip10">
  <path d="M 63.476562 20.746094 L 69.542969 -1.0625 L 86.941406 4.085938 L 80.886719 25.898438 Z M 63.476562 20.746094 "/>
</clipPath>
<clipPath id="clip11">
  <path d="M 64 2 L 86 2 L 86 23 L 64 23 Z M 64 2 "/>
</clipPath>
<clipPath id="clip12">
  <path d="M 83.933594 5.398438 C 80.925781 1.289062 74.558594 1 69.714844 4.78125 C 64.855469 8.554688 63.359375 14.953125 66.367188 19.066406 C 69.375 23.175781 75.742188 23.464844 80.597656 19.683594 C 85.441406 15.910156 86.941406 9.511719 83.933594 5.398438 Z M 83.933594 5.398438 "/>
</clipPath>
<clipPath id="clip13">
  <path d="M 53.996094 10.195312 L 79.0625 -9.316406 L 96.40625 14.453125 L 71.339844 33.953125 Z M 53.996094 10.195312 "/>
</clipPath>
<clipPath id="clip14">
  <path d="M 83.933594 5.398438 C 80.925781 1.289062 74.558594 1 69.714844 4.78125 C 64.855469 8.554688 63.359375 14.953125 66.367188 19.066406 C 69.375 23.175781 75.742188 23.464844 80.597656 19.683594 C 85.441406 15.910156 86.941406 9.511719 83.933594 5.398438 Z M 83.933594 5.398438 "/>
</clipPath>
<clipPath id="clip15">
  <path d="M 63.566406 20.667969 L 69.621094 -1.144531 L 87.019531 4.007812 L 80.964844 25.820312 Z M 63.566406 20.667969 "/>
</clipPath>
<clipPath id="clip16">
  <path d="M 64 2 L 86 2 L 86 23 L 64 23 Z M 64 2 "/>
</clipPath>
<clipPath id="clip17">
  <path d="M 83.933594 5.398438 C 80.925781 1.289062 74.558594 1 69.714844 4.78125 C 64.855469 8.554688 63.359375 14.953125 66.367188 19.066406 C 69.375 23.175781 75.742188 23.464844 80.597656 19.683594 C 85.441406 15.910156 86.941406 9.511719 83.933594 5.398438 Z M 83.933594 5.398438 "/>
</clipPath>
<clipPath id="clip18">
  <path d="M 53.996094 10.195312 L 79.0625 -9.316406 L 96.40625 14.453125 L 71.339844 33.953125 Z M 53.996094 10.195312 "/>
</clipPath>
<clipPath id="clip19">
  <path d="M 83.933594 5.398438 C 80.925781 1.289062 74.558594 1 69.714844 4.78125 C 64.855469 8.554688 63.359375 14.953125 66.367188 19.066406 C 69.375 23.175781 75.742188 23.464844 80.597656 19.683594 C 85.441406 15.910156 86.941406 9.511719 83.933594 5.398438 Z M 83.933594 5.398438 "/>
</clipPath>
<clipPath id="clip20">
  <path d="M 63.476562 20.746094 L 69.542969 -1.0625 L 86.941406 4.085938 L 80.886719 25.898438 Z M 63.476562 20.746094 "/>
</clipPath>
<clipPath id="clip21">
  <path d="M 64 2 L 86 2 L 86 23 L 64 23 Z M 64 2 "/>
</clipPath>
<clipPath id="clip22">
  <path d="M 83.933594 5.398438 C 80.925781 1.289062 74.558594 1 69.714844 4.78125 C 64.855469 8.554688 63.359375 14.953125 66.367188 19.066406 C 69.375 23.175781 75.742188 23.464844 80.597656 19.683594 C 85.441406 15.910156 86.941406 9.511719 83.933594 5.398438 Z M 83.933594 5.398438 "/>
</clipPath>
<clipPath id="clip23">
  <path d="M 53.996094 10.195312 L 79.0625 -9.316406 L 96.40625 14.453125 L 71.339844 33.953125 Z M 53.996094 10.195312 "/>
</clipPath>
<clipPath id="clip24">
  <path d="M 83.933594 5.398438 C 80.925781 1.289062 74.558594 1 69.714844 4.78125 C 64.855469 8.554688 63.359375 14.953125 66.367188 19.066406 C 69.375 23.175781 75.742188 23.464844 80.597656 19.683594 C 85.441406 15.910156 86.941406 9.511719 83.933594 5.398438 Z M 83.933594 5.398438 "/>
</clipPath>
<clipPath id="clip25">
  <path d="M 64 2 L 86 2 L 86 23 L 64 23 Z M 64 2 "/>
</clipPath>
<clipPath id="clip26">
  <path d="M 83.933594 5.398438 C 80.925781 1.289062 74.558594 1 69.714844 4.78125 C 64.855469 8.554688 63.359375 14.953125 66.367188 19.066406 C 69.375 23.175781 75.742188 23.464844 80.597656 19.683594 C 85.441406 15.910156 86.941406 9.511719 83.933594 5.398438 Z M 83.933594 5.398438 "/>
</clipPath>
<clipPath id="clip27">
  <path d="M 53.996094 10.195312 L 79.0625 -9.316406 L 96.40625 14.453125 L 71.339844 33.953125 Z M 53.996094 10.195312 "/>
</clipPath>
<clipPath id="clip28">
  <path d="M 70 6 L 81.667969 6 L 81.667969 19 L 70 19 Z M 70 6 "/>
</clipPath>
<clipPath id="clip29">
  <path d="M 83.933594 5.398438 C 80.925781 1.289062 74.558594 1 69.714844 4.78125 C 64.855469 8.554688 63.359375 14.953125 66.367188 19.066406 C 69.375 23.175781 75.742188 23.464844 80.597656 19.683594 C 85.441406 15.910156 86.941406 9.511719 83.933594 5.398438 Z M 83.933594 5.398438 "/>
</clipPath>
<clipPath id="clip30">
  <path d="M 53.996094 10.195312 L 79.0625 -9.316406 L 96.40625 14.453125 L 71.339844 33.953125 Z M 53.996094 10.195312 "/>
</clipPath>
</defs>
<g id="surface1">
<path style=" stroke:none;fill-rule:nonzero;fill:rgb(0%,0%,0%);fill-opacity:1;" d="M 51.574219 12.257812 L 56.160156 11.945312 C 56.261719 12.71875 56.457031 13.296875 56.769531 13.71875 C 57.277344 14.359375 57.980469 14.691406 58.90625 14.691406 C 59.582031 14.691406 60.128906 14.53125 60.496094 14.175781 C 60.832031 13.914062 61.054688 13.480469 61.054688 13.035156 C 61.054688 12.601562 60.859375 12.179688 60.519531 11.917969 C 60.183594 11.589844 59.363281 11.261719 58.058594 10.972656 C 55.949219 10.484375 54.425781 9.839844 53.542969 9.011719 C 52.65625 8.238281 52.148438 7.09375 52.1875 5.898438 C 52.1875 5.058594 52.421875 4.230469 52.878906 3.546875 C 53.398438 2.773438 54.113281 2.167969 54.972656 1.828125 C 55.898438 1.40625 57.1875 1.195312 58.816406 1.195312 C 60.808594 1.195312 62.316406 1.5625 63.371094 2.339844 C 64.414062 3.101562 65.050781 4.324219 65.234375 6.003906 L 60.703125 6.265625 C 60.574219 5.542969 60.339844 5.03125 59.933594 4.691406 C 59.53125 4.347656 59.011719 4.179688 58.320312 4.179688 C 57.773438 4.179688 57.34375 4.308594 57.070312 4.546875 C 56.808594 4.757812 56.628906 5.085938 56.652344 5.441406 C 56.652344 5.714844 56.785156 5.964844 57.003906 6.121094 C 57.226562 6.347656 57.773438 6.542969 58.621094 6.726562 C 60.730469 7.1875 62.238281 7.660156 63.164062 8.144531 C 64.089844 8.632812 64.753906 9.222656 65.15625 9.933594 C 65.574219 10.65625 65.78125 11.484375 65.769531 12.324219 C 65.769531 13.335938 65.480469 14.347656 64.921875 15.1875 C 64.347656 16.082031 63.542969 16.765625 62.605469 17.171875 C 61.601562 17.621094 60.351562 17.855469 58.855469 17.855469 C 56.199219 17.855469 54.363281 17.34375 53.332031 16.28125 C 52.304688 15.214844 51.691406 13.875 51.574219 12.257812 Z M 2.851562 17.59375 L 2.851562 1.472656 L 10.898438 1.472656 C 12.382812 1.472656 13.542969 1.601562 14.324219 1.878906 C 15.089844 2.128906 15.769531 2.652344 16.222656 3.351562 C 16.730469 4.125 16.980469 5.03125 16.953125 5.964844 C 17.003906 7.554688 16.222656 9.066406 14.882812 9.855469 C 14.363281 10.167969 13.777344 10.378906 13.191406 10.484375 C 13.621094 10.617188 14.0625 10.828125 14.441406 11.089844 C 14.738281 11.339844 14.988281 11.628906 15.207031 11.929688 C 15.46875 12.234375 15.703125 12.574219 15.898438 12.941406 L 18.230469 17.605469 L 12.746094 17.605469 L 10.167969 12.652344 C 9.832031 12.023438 9.558594 11.601562 9.296875 11.40625 C 8.945312 11.15625 8.527344 11.023438 8.113281 11.023438 L 7.695312 11.023438 L 7.695312 17.566406 L 2.851562 17.566406 Z M 7.695312 8 L 9.726562 8 C 10.167969 7.960938 10.585938 7.898438 11.003906 7.792969 C 11.316406 7.726562 11.601562 7.554688 11.796875 7.277344 C 12.265625 6.636719 12.1875 5.714844 11.613281 5.152344 C 11.300781 4.886719 10.691406 4.742188 9.816406 4.742188 L 7.695312 4.742188 Z M 1.757812 31.390625 L 6.339844 31.085938 C 6.445312 31.863281 6.640625 32.441406 6.953125 32.859375 C 7.449219 33.503906 8.164062 33.847656 9.089844 33.847656 C 9.765625 33.847656 10.3125 33.6875 10.675781 33.347656 C 11.027344 33.058594 11.238281 32.636719 11.238281 32.191406 C 11.238281 31.757812 11.042969 31.335938 10.703125 31.074219 C 10.363281 30.746094 9.542969 30.417969 8.230469 30.128906 C 6.121094 29.640625 4.597656 29 3.710938 28.171875 C 2.824219 27.394531 2.316406 26.253906 2.34375 25.054688 C 2.34375 24.214844 2.589844 23.386719 3.046875 22.703125 C 3.566406 21.929688 4.285156 21.324219 5.144531 20.984375 C 6.066406 20.5625 7.355469 20.351562 8.984375 20.351562 C 10.976562 20.351562 12.488281 20.71875 13.542969 21.496094 C 14.582031 22.269531 15.195312 23.480469 15.390625 25.160156 L 10.847656 25.425781 C 10.730469 24.714844 10.480469 24.1875 10.078125 23.847656 C 9.699219 23.507812 9.152344 23.335938 8.476562 23.363281 C 7.917969 23.363281 7.5 23.480469 7.214844 23.730469 C 6.941406 23.953125 6.785156 24.28125 6.796875 24.636719 C 6.796875 24.910156 6.941406 25.160156 7.148438 25.320312 C 7.371094 25.542969 7.917969 25.738281 8.777344 25.910156 C 10.886719 26.382812 12.382812 26.855469 13.308594 27.34375 C 14.230469 27.828125 14.894531 28.421875 15.300781 29.128906 C 15.714844 29.839844 15.925781 30.679688 15.925781 31.507812 C 15.925781 32.507812 15.625 33.503906 15.089844 34.347656 C 14.519531 35.238281 13.710938 35.921875 12.773438 36.328125 C 11.769531 36.789062 10.519531 37.011719 9.011719 37.011719 C 6.367188 37.011719 4.53125 36.5 3.503906 35.4375 C 2.472656 34.347656 1.886719 33.019531 1.757812 31.390625 Z M 1.757812 31.390625 "/>
<path style=" stroke:none;fill-rule:nonzero;fill:rgb(0%,0%,0%);fill-opacity:1;" d="M 24.972656 30.128906 L 29.191406 31.457031 C 28.972656 32.546875 28.488281 33.597656 27.851562 34.515625 C 27.253906 35.316406 26.472656 35.949219 25.585938 36.371094 C 24.675781 36.789062 23.515625 37 22.121094 37 C 20.429688 37 19.035156 36.75 17.96875 36.238281 C 16.886719 35.738281 15.964844 34.832031 15.183594 33.558594 C 14.386719 32.28125 14.011719 30.640625 14.011719 28.644531 C 14.011719 25.976562 14.6875 23.914062 16.066406 22.496094 C 17.449219 21.0625 19.386719 20.351562 21.902344 20.351562 C 23.867188 20.351562 25.402344 20.761719 26.535156 21.574219 C 27.65625 22.402344 28.488281 23.664062 29.050781 25.359375 L 24.792969 26.332031 C 24.6875 25.949219 24.53125 25.570312 24.324219 25.253906 C 24.0625 24.871094 23.722656 24.582031 23.332031 24.359375 C 22.929688 24.148438 22.472656 24.058594 22.019531 24.058594 C 20.925781 24.058594 20.078125 24.503906 19.503906 25.425781 C 19.074219 26.09375 18.839844 27.160156 18.839844 28.605469 C 18.839844 30.390625 19.101562 31.613281 19.621094 32.28125 C 20.15625 32.941406 20.886719 33.269531 21.847656 33.269531 C 22.773438 33.269531 23.464844 32.992188 23.945312 32.480469 C 24.414062 31.914062 24.765625 31.140625 24.972656 30.128906 Z M 34.832031 20.617188 L 39.648438 20.617188 L 39.648438 26.253906 L 44.921875 26.253906 L 44.921875 20.617188 L 49.777344 20.617188 L 49.777344 36.722656 L 44.921875 36.722656 L 44.921875 30.207031 L 39.648438 30.207031 L 39.648438 36.722656 L 34.832031 36.722656 Z M 34.832031 20.617188 "/>
<path style=" stroke:none;fill-rule:nonzero;fill:rgb(0%,0%,0%);fill-opacity:1;" d="M 49.113281 28.667969 C 49.113281 26.042969 49.832031 23.992188 51.238281 22.535156 C 52.65625 21.0625 54.648438 20.328125 57.175781 20.328125 C 59.777344 20.328125 61.769531 21.050781 63.175781 22.496094 C 64.597656 23.941406 65.285156 25.949219 65.285156 28.550781 C 65.285156 30.445312 64.972656 31.96875 64.363281 33.175781 C 63.777344 34.371094 62.851562 35.34375 61.707031 35.988281 C 60.546875 36.660156 59.089844 37 57.371094 37 C 55.597656 37 54.152344 36.710938 53.007812 36.132812 C 51.808594 35.527344 50.832031 34.570312 50.195312 33.398438 C 49.480469 32.136719 49.113281 30.5625 49.113281 28.667969 Z M 53.933594 28.695312 C 53.933594 30.3125 54.21875 31.480469 54.804688 32.203125 C 55.378906 32.914062 56.183594 33.269531 57.1875 33.269531 C 58.214844 33.269531 59.023438 32.925781 59.597656 32.230469 C 60.183594 31.519531 60.457031 30.273438 60.457031 28.472656 C 60.457031 26.960938 60.15625 25.84375 59.570312 25.160156 C 58.972656 24.453125 58.164062 24.109375 57.160156 24.109375 C 56.261719 24.085938 55.417969 24.476562 54.816406 25.175781 C 54.21875 25.882812 53.933594 27.054688 53.933594 28.695312 Z M 70.234375 28.667969 C 70.234375 26.042969 70.949219 23.992188 72.355469 22.535156 C 73.777344 21.0625 75.769531 20.328125 78.292969 20.328125 C 80.898438 20.328125 82.902344 21.050781 84.296875 22.496094 C 85.691406 23.941406 86.40625 25.949219 86.40625 28.550781 C 86.40625 30.445312 86.09375 31.96875 85.480469 33.175781 C 84.894531 34.371094 83.972656 35.34375 82.839844 35.988281 C 81.667969 36.660156 80.207031 37 78.488281 37 C 76.71875 37 75.273438 36.710938 74.128906 36.132812 C 72.929688 35.527344 71.953125 34.570312 71.316406 33.398438 C 70.597656 32.136719 70.234375 30.5625 70.234375 28.667969 Z M 75.050781 28.695312 C 75.050781 30.3125 75.339844 31.480469 75.925781 32.203125 C 76.496094 32.914062 77.304688 33.269531 78.308594 33.269531 C 79.335938 33.269531 80.144531 32.925781 80.714844 32.230469 C 81.300781 31.519531 81.574219 30.273438 81.574219 28.472656 C 81.574219 26.960938 81.277344 25.84375 80.691406 25.160156 C 80.089844 24.453125 79.285156 24.109375 78.28125 24.109375 C 77.382812 24.085938 76.511719 24.476562 75.9375 25.175781 C 75.339844 25.882812 75.050781 27.054688 75.050781 28.695312 Z M 75.050781 28.695312 "/>
<path style=" stroke:none;fill-rule:nonzero;fill:rgb(0%,0%,0%);fill-opacity:1;" d="M 85.898438 20.617188 L 90.714844 20.617188 L 90.714844 32.769531 L 98.242188 32.769531 L 98.242188 36.722656 L 85.886719 36.722656 L 85.886719 20.617188 Z M 85.898438 20.617188 "/>
<path style=" stroke:none;fill-rule:nonzero;fill:rgb(100%,100%,100%);fill-opacity:1;" d="M 83.933594 5.398438 C 80.925781 1.289062 74.558594 1 69.714844 4.78125 C 64.855469 8.554688 63.359375 14.953125 66.367188 19.066406 C 69.375 23.175781 75.742188 23.464844 80.597656 19.683594 C 85.441406 15.910156 86.941406 9.511719 83.933594 5.398438 Z M 83.933594 5.398438 "/>
<g clip-path="url(#clip1)" clip-rule="nonzero">
<g clip-path="url(#clip2)" clip-rule="nonzero">
<path style=" stroke:none;fill-rule:nonzero;fill:rgb(100%,100%,100%);fill-opacity:1;" d="M 53.996094 10.195312 L 79.0625 -9.316406 L 96.40625 14.453125 L 71.339844 33.953125 Z M 53.996094 10.195312 "/>
<g clip-path="url(#clip3)" clip-rule="nonzero">
<path style=" stroke:none;fill-rule:nonzero;fill:rgb(100%,100%,100%);fill-opacity:1;" d="M 83.933594 5.398438 C 80.925781 1.289062 74.558594 1 69.714844 4.78125 C 64.855469 8.554688 63.359375 14.953125 66.367188 19.066406 C 69.375 23.175781 75.742188 23.464844 80.597656 19.683594 C 85.441406 15.910156 86.941406 9.511719 83.933594 5.398438 Z M 83.933594 5.398438 "/>
<g clip-path="url(#clip4)" clip-rule="nonzero">
<path style=" stroke:none;fill-rule:nonzero;fill:rgb(100%,100%,100%);fill-opacity:1;" d="M 60.976562 11.773438 L 78.527344 -1.878906 L 89.425781 13.046875 L 71.875 26.699219 Z M 60.976562 11.773438 "/>
<g clip-path="url(#clip5)" clip-rule="nonzero">
<path style="fill-rule:nonzero;fill:rgb(100%,100%,100%);fill-opacity:1;stroke-width:4;stroke-linecap:butt;stroke-linejoin:miter;stroke:rgb(0%,0%,0%);stroke-opacity:1;stroke-miterlimit:10;" d="M 483.493524 67.892177 C 483.454249 39.311641 455.287291 16.077177 420.498488 16.132146 C 385.664282 16.098622 357.452578 39.293561 357.478808 67.891407 C 357.518083 96.471942 385.685041 119.706407 420.527462 119.691842 C 455.290177 119.671493 483.519755 96.490022 483.493524 67.892177 Z M 483.493524 67.892177 " transform="matrix(0.139399,-0.108464,0.105048,0.143931,9.40312,48.068341)"/>
</g>
</g>
</g>
</g>
</g>
<g clip-path="url(#clip6)" clip-rule="nonzero">
<g clip-path="url(#clip7)" clip-rule="nonzero">
<g clip-path="url(#clip8)" clip-rule="nonzero">
<g clip-path="url(#clip9)" clip-rule="nonzero">
<g clip-path="url(#clip10)" clip-rule="nonzero">
<path style="fill:none;stroke-width:4;stroke-linecap:butt;stroke-linejoin:miter;stroke:rgb(0%,0%,0%);stroke-opacity:1;stroke-miterlimit:10;" d="M 357.791111 16.970341 L 483.682331 16.984252 L 483.706336 120.701587 L 357.815116 120.687676 Z M 357.791111 16.970341 " transform="matrix(0.139401,-0.108461,0.105046,0.143933,9.317577,48.137387)"/>
</g>
</g>
</g>
</g>
</g>
<g clip-path="url(#clip11)" clip-rule="nonzero">
<g clip-path="url(#clip12)" clip-rule="nonzero">
<g clip-path="url(#clip13)" clip-rule="nonzero">
<g clip-path="url(#clip14)" clip-rule="nonzero">
<path style="fill:none;stroke-width:4;stroke-linecap:butt;stroke-linejoin:miter;stroke:rgb(0%,0%,0%);stroke-opacity:1;stroke-miterlimit:10;" d="M 483.493524 67.892177 C 483.454249 39.311641 455.287291 16.077177 420.498488 16.132146 C 385.664282 16.098622 357.452578 39.293561 357.478808 67.891407 C 357.518083 96.471942 385.685041 119.706407 420.527462 119.691842 C 455.290177 119.671493 483.519755 96.490022 483.493524 67.892177 Z M 483.493524 67.892177 " transform="matrix(0.139399,-0.108464,0.105048,0.143931,9.40312,48.068341)"/>
<path style=" stroke:none;fill-rule:nonzero;fill:rgb(100%,100%,100%);fill-opacity:1;" d="M 60.976562 11.773438 L 78.527344 -1.878906 L 89.425781 13.046875 L 71.875 26.699219 Z M 60.976562 11.773438 "/>
<g clip-path="url(#clip15)" clip-rule="nonzero">
<path style="fill-rule:nonzero;fill:rgb(100%,100%,100%);fill-opacity:1;stroke-width:4;stroke-linecap:butt;stroke-linejoin:miter;stroke:rgb(0%,0%,0%);stroke-opacity:1;stroke-miterlimit:10;" d="M 483.493524 67.892177 C 483.454249 39.311641 455.287291 16.077177 420.498488 16.132146 C 385.664282 16.098622 357.452578 39.293561 357.478808 67.891407 C 357.518083 96.471942 385.685041 119.706407 420.527462 119.691842 C 455.290177 119.671493 483.519755 96.490022 483.493524 67.892177 Z M 483.493524 67.892177 " transform="matrix(0.139399,-0.108464,0.105048,0.143931,9.40312,48.068341)"/>
</g>
</g>
</g>
</g>
</g>
<g clip-path="url(#clip16)" clip-rule="nonzero">
<g clip-path="url(#clip17)" clip-rule="nonzero">
<g clip-path="url(#clip18)" clip-rule="nonzero">
<g clip-path="url(#clip19)" clip-rule="nonzero">
<g clip-path="url(#clip20)" clip-rule="nonzero">
<path style="fill:none;stroke-width:4;stroke-linecap:butt;stroke-linejoin:miter;stroke:rgb(0%,0%,0%);stroke-opacity:1;stroke-miterlimit:10;" d="M 357.791111 16.970341 L 483.682331 16.984252 L 483.706336 120.701587 L 357.815116 120.687676 Z M 357.791111 16.970341 " transform="matrix(0.139401,-0.108461,0.105046,0.143933,9.317577,48.137387)"/>
</g>
</g>
</g>
</g>
</g>
<g clip-path="url(#clip21)" clip-rule="nonzero">
<g clip-path="url(#clip22)" clip-rule="nonzero">
<g clip-path="url(#clip23)" clip-rule="nonzero">
<g clip-path="url(#clip24)" clip-rule="nonzero">
<path style="fill:none;stroke-width:4;stroke-linecap:butt;stroke-linejoin:miter;stroke:rgb(0%,0%,0%);stroke-opacity:1;stroke-miterlimit:10;" d="M 330.857192 -14.194938 L 510.701413 -14.230144 L 510.681057 150.899441 L 330.875968 150.882718 Z M 330.857192 -14.194938 " transform="matrix(0.139399,-0.108464,0.105048,0.143931,9.366087,48.124555)"/>
</g>
</g>
</g>
</g>
<g clip-path="url(#clip25)" clip-rule="nonzero">
<g clip-path="url(#clip26)" clip-rule="nonzero">
<g clip-path="url(#clip27)" clip-rule="nonzero">
<path style="fill:none;stroke-width:4;stroke-linecap:butt;stroke-linejoin:miter;stroke:rgb(0%,0%,0%);stroke-opacity:1;stroke-miterlimit:10;" d="M 483.493524 67.892177 C 483.454249 39.311641 455.287291 16.077177 420.498488 16.132146 C 385.664282 16.098622 357.452578 39.293561 357.478808 67.891407 C 357.518083 96.471942 385.685041 119.706407 420.527462 119.691842 C 455.290177 119.671493 483.519755 96.490022 483.493524 67.892177 Z M 483.493524 67.892177 " transform="matrix(0.139399,-0.108464,0.105048,0.143931,9.40312,48.068341)"/>
</g>
</g>
</g>
<g clip-path="url(#clip28)" clip-rule="nonzero">
<g clip-path="url(#clip29)" clip-rule="nonzero">
<g clip-path="url(#clip30)" clip-rule="nonzero">
<path style=" stroke:none;fill-rule:nonzero;fill:rgb(0%,0%,0%);fill-opacity:1;" d="M 70.246094 11.050781 L 71.992188 9.789062 L 74.140625 12.941406 C 74.503906 13.441406 74.792969 13.980469 75 14.585938 C 75.117188 15.03125 75.078125 15.515625 74.910156 15.949219 C 74.6875 16.488281 74.308594 16.9375 73.828125 17.265625 C 73.253906 17.683594 72.761719 17.910156 72.34375 17.988281 C 71.941406 18.054688 71.523438 17.988281 71.132812 17.804688 C 70.714844 17.59375 70.351562 17.277344 70.078125 16.882812 L 71.574219 15.453125 C 71.691406 15.648438 71.847656 15.820312 72.03125 15.964844 C 72.148438 16.054688 72.292969 16.109375 72.449219 16.109375 C 72.566406 16.109375 72.695312 16.054688 72.773438 15.992188 C 72.957031 15.871094 73.074219 15.660156 73.058594 15.453125 C 73.007812 15.136719 72.878906 14.835938 72.695312 14.597656 Z M 75.480469 13.046875 L 77.070312 11.746094 C 77.253906 11.96875 77.472656 12.128906 77.722656 12.21875 C 78.074219 12.324219 78.4375 12.257812 78.738281 12.023438 C 78.945312 11.878906 79.113281 11.679688 79.179688 11.429688 C 79.285156 11.101562 79.113281 10.746094 78.800781 10.628906 C 78.75 10.617188 78.699219 10.601562 78.644531 10.601562 C 78.4375 10.578125 78.074219 10.667969 77.527344 10.90625 C 76.640625 11.285156 75.9375 11.429688 75.417969 11.378906 C 74.910156 11.3125 74.441406 11.050781 74.152344 10.601562 C 73.945312 10.289062 73.839844 9.933594 73.828125 9.566406 C 73.828125 9.15625 73.933594 8.738281 74.152344 8.394531 C 74.492188 7.910156 74.894531 7.503906 75.378906 7.175781 C 76.105469 6.648438 76.757812 6.398438 77.316406 6.398438 C 77.878906 6.398438 78.398438 6.675781 78.894531 7.226562 L 77.316406 8.5 C 77.003906 8.09375 76.40625 8 76.003906 8.332031 L 75.949219 8.382812 C 75.78125 8.488281 75.664062 8.644531 75.585938 8.84375 C 75.535156 8.988281 75.574219 9.15625 75.664062 9.277344 C 75.730469 9.367188 75.832031 9.445312 75.949219 9.445312 C 76.09375 9.460938 76.339844 9.394531 76.691406 9.222656 C 77.566406 8.84375 78.230469 8.632812 78.671875 8.566406 C 79.0625 8.488281 79.464844 8.527344 79.832031 8.683594 C 80.15625 8.828125 80.441406 9.078125 80.636719 9.394531 C 80.871094 9.75 81.015625 10.183594 81.027344 10.628906 C 81.054688 11.101562 80.925781 11.550781 80.691406 11.945312 C 80.378906 12.429688 79.972656 12.851562 79.503906 13.179688 C 78.542969 13.863281 77.746094 14.152344 77.121094 14.046875 C 76.445312 13.925781 75.886719 13.574219 75.480469 13.046875 Z M 75.480469 13.046875 "/>
</g>
</g>
</g>
</g>
</svg>
